<svg width="245" height="50" viewBox="0 0 245 50" fill="none" xmlns="http://www.w3.org/2000/svg">
<path d="M64.1399 3.52231C66.6171 3.52231 68.7427 4.05499 70.5063 5.12553C72.2698 6.19608 73.6558 7.55623 74.6591 9.20083C75.6624 10.8506 76.2624 12.6555 76.4692 14.6259C76.6709 16.5964 76.4589 18.4892 75.8331 20.3045C75.2022 22.1197 74.1368 23.7333 72.6215 25.1452C71.1113 26.5571 69.1461 27.5138 66.7361 28.0258L78.7861 40.9189C77.8708 41.4619 77.0019 41.767 76.19 41.8343C75.3728 41.9015 74.5919 41.7981 73.8472 41.5291C73.0973 41.255 72.4043 40.8568 71.7578 40.3345C71.1113 39.807 70.4856 39.207 69.8701 38.5244C67.2533 35.773 64.6726 33.0062 62.1281 30.2186C59.5785 27.4362 62.847 31.0461 60.2663 28.2275H44.0634V41.7774L39.1192 41.8187V12.7952H44.0634V23.3403H64.1347C65.8 23.3403 67.1809 22.9731 68.2876 22.2439C69.3892 21.5147 70.2218 20.5889 70.7855 19.4667C71.3441 18.3444 71.6285 17.1497 71.6285 15.8723C71.6285 14.5949 71.3492 13.4003 70.7855 12.2832C70.2218 11.1661 69.3943 10.2352 68.2876 9.50596C67.1809 8.77675 65.8 8.40956 64.1347 8.40956C61.1817 8.40956 58.2235 8.42508 55.2704 8.46128C52.3174 8.49748 49.3747 8.4768 46.4579 8.40956C45.5735 8.40956 44.715 8.35267 43.8875 8.23373C43.0549 8.11478 42.2998 7.88205 41.6223 7.5252C40.9448 7.17353 40.3501 6.67704 39.8381 6.03575C39.3313 5.39446 38.9537 4.55665 38.7158 3.51196C42.9618 3.57919 47.1922 3.59471 51.402 3.56368C55.6118 3.52748 59.8577 3.51196 64.1399 3.51196V3.52231Z" fill="white"/>
<path d="M138.27 8.41445V41.8443C137.251 41.6064 136.419 41.234 135.772 40.722C135.126 40.2101 134.624 39.5998 134.267 38.8861C133.91 38.1724 133.672 37.3708 133.553 36.4864C133.435 35.6021 133.357 34.6505 133.326 33.6317V8.41445L124.306 8.51788C123.422 8.48168 122.564 8.39893 121.736 8.26447C120.904 8.13 120.138 7.88693 119.445 7.53008C118.747 7.17841 118.147 6.68193 117.635 6.04064C117.123 5.39934 116.771 4.56153 116.564 3.51685H155.13V8.40927H138.265L138.27 8.41445Z" fill="white"/>
<path d="M190.082 8.41416H165.981C165.164 8.38313 164.378 8.29004 163.613 8.13488C162.847 7.98491 162.149 7.72115 161.523 7.35396C160.893 6.98677 160.36 6.49546 159.92 5.89037C159.481 5.28528 159.155 4.49401 158.953 3.52173C160.344 3.52173 161.968 3.53207 163.82 3.54759C165.671 3.5631 167.631 3.57345 169.705 3.57345H176.097C178.29 3.57345 180.421 3.5631 182.49 3.54759C184.558 3.53207 186.523 3.52173 188.375 3.52173H190.966L190.082 8.41416Z" fill="white"/>
<path d="M192.988 19.0112L189.523 23.8985H163.897V36.7915H192.988L189.523 41.7822H158.953V19.0112H192.988Z" fill="white"/>
<path d="M34.035 18.877L30.5699 23.7694H4.94414V36.6573H34.035L30.5699 41.6479H0V18.877H34.035Z" fill="white"/>
<path d="M4.94414 20.4547V8.28569H28.8891C29.9441 8.28569 30.9319 7.7737 31.5422 6.91519L34.035 3.39844H0V20.4547H4.94414Z" fill="white"/>
<path d="M196.411 5.70438L187.505 0V11.4088L196.411 5.70438Z" fill="white"/>
<path d="M119.952 28.9461C117.356 22.5952 114.749 16.1927 112.132 9.73839C111.114 7.59731 109.753 5.99408 108.057 4.92354C106.356 3.853 104.582 3.32031 102.735 3.32031C100.889 3.32031 99.1101 3.853 97.4137 4.92354C95.7123 5.99408 94.3573 7.59731 93.3384 9.73839L80.5488 41.7357H85.8498L89.9251 31.444H89.9872L91.9524 26.5516H91.9059L97.8689 11.6261C98.4481 10.54 99.1773 9.72288 100.062 9.17985C100.946 8.63682 101.851 8.36272 102.787 8.36272C103.723 8.36272 104.618 8.63682 105.487 9.17985C106.35 9.72288 107.074 10.54 107.654 11.6261C108.538 13.9378 109.49 16.3478 110.508 18.8613C111.527 21.3747 112.562 23.9399 113.617 26.5568H113.58L115.597 31.4492L117.614 36.3468C117.956 37.195 118.328 37.9914 118.737 38.7413C119.145 39.486 119.647 40.1273 120.242 40.6496C120.836 41.1772 121.524 41.5495 122.305 41.7719C123.086 41.9943 124.017 42.0201 125.108 41.8495C122.559 35.3952 122.559 35.3073 119.957 28.9564L119.952 28.9461Z" fill="white"/>
<path d="M217.428 3.42314C205.854 3.42314 197.771 11.3152 197.771 22.6205C197.771 33.269 205.104 41.1041 214.382 41.6006C220.278 41.9213 220.221 41.5179 223.944 40.0491L225.61 38.9217L227.26 41.5179C232.204 38.058 237.029 32.214 237.029 22.6153C237.029 10.9531 229.333 3.41797 217.428 3.41797V3.42314ZM217.428 37.3029C208.833 37.3029 203.496 31.6761 203.496 22.6153C203.496 13.5545 208.833 7.98975 217.428 7.98975C226.024 7.98975 231.304 13.5959 231.304 22.6153C231.304 31.6348 225.987 37.3029 217.428 37.3029Z" fill="white"/>
<path d="M244.326 49.6937V45.1633C235.622 44.0566 230.564 43.8084 225.444 44.2169L217.113 44.8789L217.666 44.5789C213.932 45.4064 210.178 45.7736 207.033 46.0736L207.426 49.9989C219.849 48.287 229.499 47.8061 244.326 49.6989V49.6937Z" fill="white"/>
<path d="M207.033 46.0694C207.033 46.0694 219.797 45.2213 226.391 39.7083L227.26 41.5183C227.26 41.5183 222.802 44.7662 217.842 45.2885L207.856 46.7573L207.033 46.0694Z" fill="white"/>
<path d="M212.913 41.4354C212.913 41.4354 221.151 43.2765 226.044 38.7512L217.903 38.6633L212.028 39.1546L212.907 41.4405L212.913 41.4354Z" fill="white"/>
</svg>
