<svg width="30" height="29" viewBox="0 0 30 29" fill="none" xmlns="http://www.w3.org/2000/svg">
<path d="M21.5122 19.625C21.3013 17.724 20.4507 15.9511 19.1 14.5969C17.7492 13.2428 15.9785 12.3877 14.078 12.1719C12.1776 11.9562 10.2602 12.3925 8.64026 13.4094C7.02033 14.4263 5.79396 15.9634 5.16222 17.7687C3.71461 17.8872 2.36894 18.5611 1.4069 19.6492C0.444864 20.7374 -0.0589672 22.1555 0.000874401 23.6067C0.060716 25.058 0.679591 26.4298 1.72795 27.4351C2.77632 28.4403 4.17289 29.0011 5.62535 29H21.5628C22.806 29 23.9983 28.5061 24.8774 27.6271C25.7565 26.748 26.2503 25.5557 26.2503 24.3125C26.2503 23.0693 25.7565 21.877 24.8774 20.9979C23.9983 20.1189 22.806 19.625 21.5628 19.625H21.5122Z" fill="white"/>
<path d="M19.6875 1.8125C19.6875 1.56386 19.5888 1.3254 19.413 1.14959C19.2371 0.973772 18.9987 0.875 18.75 0.875C18.5014 0.875 18.2629 0.973772 18.0871 1.14959C17.9113 1.3254 17.8125 1.56386 17.8125 1.8125V3.6875C17.8125 3.93614 17.9113 4.1746 18.0871 4.35041C18.2629 4.52623 18.5014 4.625 18.75 4.625C18.9987 4.625 19.2371 4.52623 19.413 4.35041C19.5888 4.1746 19.6875 3.93614 19.6875 3.6875V1.8125ZM26.7057 5.495C26.7952 5.40852 26.8666 5.30507 26.9158 5.19069C26.9649 5.07631 26.9908 4.95329 26.9918 4.82881C26.9929 4.70433 26.9692 4.58088 26.9221 4.46567C26.8749 4.35045 26.8053 4.24578 26.7173 4.15775C26.6293 4.06973 26.5246 4.00012 26.4094 3.95298C26.2942 3.90584 26.1707 3.88212 26.0462 3.8832C25.9217 3.88428 25.7987 3.91015 25.6843 3.95928C25.57 4.00841 25.4665 4.07983 25.38 4.16937L24.0525 5.495C23.8765 5.67104 23.7776 5.9098 23.7776 6.15875C23.7776 6.4077 23.8765 6.64646 24.0525 6.8225C24.2286 6.99854 24.4673 7.09743 24.7163 7.09743C24.9652 7.09743 25.204 6.99854 25.38 6.8225L26.7057 5.495ZM12.12 4.16937C11.9432 3.9986 11.7064 3.90411 11.4606 3.90624C11.2148 3.90838 10.9797 4.00697 10.8058 4.18079C10.632 4.35461 10.5334 4.58975 10.5313 4.83556C10.5291 5.08137 10.6236 5.31819 10.7944 5.495L12.12 6.8225C12.2072 6.90966 12.3107 6.97881 12.4246 7.02598C12.5385 7.07315 12.6605 7.09743 12.7838 7.09743C12.9071 7.09743 13.0291 7.07315 13.143 7.02598C13.2569 6.97881 13.3604 6.90966 13.4475 6.8225C13.5347 6.73533 13.6039 6.63186 13.651 6.51797C13.6982 6.40408 13.7225 6.28202 13.7225 6.15875C13.7225 6.03548 13.6982 5.91342 13.651 5.79953C13.6039 5.68564 13.5347 5.58216 13.4475 5.495L12.12 4.16937ZM23.7788 18.1344C24.9038 18.5375 25.8882 19.2406 26.6325 20.1444C26.7346 20.0617 26.8182 19.9585 26.8778 19.8415C26.9375 19.7245 26.9718 19.5962 26.9787 19.465C26.9856 19.3339 26.9649 19.2027 26.9178 19.0801C26.8708 18.9574 26.7985 18.846 26.7057 18.7531L25.38 17.4275C25.2464 17.2931 25.0751 17.2023 24.8888 17.1672C24.7025 17.132 24.51 17.1542 24.3366 17.2308C24.1631 17.3074 24.017 17.4347 23.9174 17.596C23.8178 17.7573 23.7695 17.945 23.7788 18.1344ZM27.1875 11.1875C26.9389 11.1875 26.7004 11.2863 26.5246 11.4621C26.3488 11.6379 26.25 11.8764 26.25 12.125C26.25 12.3736 26.3488 12.6121 26.5246 12.7879C26.7004 12.9637 26.9389 13.0625 27.1875 13.0625H29.0625C29.3112 13.0625 29.5496 12.9637 29.7255 12.7879C29.9013 12.6121 30 12.3736 30 12.125C30 11.8764 29.9013 11.6379 29.7255 11.4621C29.5496 11.2863 29.3112 11.1875 29.0625 11.1875H27.1875Z" fill="white"/>
<path d="M23.3663 16.0338C23.9151 15.5118 24.3424 14.8695 24.6168 14.1539C24.8912 13.4384 25.0058 12.6676 24.9521 11.8983C24.8984 11.129 24.6779 10.3805 24.3066 9.70783C23.9354 9.03515 23.4229 8.45531 22.8066 8.01081C22.1904 7.56632 21.4861 7.26844 20.7453 7.13903C20.0046 7.00962 19.2461 7.05196 18.5257 7.26293C17.8053 7.47391 17.1411 7.84817 16.5818 8.35829C16.0225 8.8684 15.5824 9.50142 15.2936 10.2109C15.2936 10.2109 17.5102 10.5274 19.9357 12.2317C22.3613 13.936 22.3454 14.8733 23.3663 16.0338Z" fill="white"/>
</svg>
